<?xml version="1.0" standalone="no"?>
<!DOCTYPE svg PUBLIC "-//W3C//DTD SVG 1.1//EN" "http://www.w3.org/Graphics/SVG/1.1/DTD/svg11.dtd" >
<svg>
<metadata>
Created by FontForge 20120731 at Sat Jun 29 16:42:57 2019
 By www
Copyright (c) 1992 Corel Corporation. All Rights Reserved.
</metadata>
<defs>
<font id="USALightPlain" horiz-adv-x="2281" >
  <font-face 
    font-family="USALight"
    font-weight="400"
    font-stretch="normal"
    units-per-em="4096"
    panose-1="2 11 114 0 0 0 0 0 0 0"
    ascent="3276"
    descent="-820"
    x-height="2056"
    cap-height="2978"
    bbox="-184 -799 4104 3928"
    underline-thickness="50"
    underline-position="-75"
    unicode-range="U+0020-F002"
  />
<missing-glyph horiz-adv-x="3072" 
d="M512 0v2560h2048v-2560h-2048zM2494 66v2428h-1916v-2428h1916z" />
    <glyph glyph-name=".notdef" horiz-adv-x="3072" 
d="M512 0v2560h2048v-2560h-2048zM2494 66v2428h-1916v-2428h1916z" />
    <glyph glyph-name=".null" horiz-adv-x="0" 
 />
    <glyph glyph-name="nonmarkingreturn" horiz-adv-x="0" 
 />
    <glyph glyph-name="brokenbar" unicode="&#xa6;" horiz-adv-x="606" 
d="M319 2970h267v-2970h-267v2970z" />
    <glyph glyph-name="twosuperior" unicode="&#xb2;" horiz-adv-x="1360" 
d="M135 1159v168q112 86 292 262t337 358.5t219 301.5q57 96 57 200q0 131 -101 192.5t-226 61.5q-132 0 -240.5 -70.5t-120.5 -224.5h-200q0 229 163 358.5t398 129.5q296 0 424.5 -133t128.5 -305q0 -133 -86.5 -287t-210.5 -296t-263 -278t-251 -245h831v-193h-1151z" />
    <glyph glyph-name="threesuperior" unicode="&#xb3;" horiz-adv-x="1360" 
d="M598 2150q475 0 475 283q0 134 -115.5 202t-261.5 68q-325 -11 -368 -254h-217q5 234 183 340.5t394 106.5q261 0 430.5 -114t175.5 -333q0 -128 -86 -241t-286 -152v-8q192 -40 291.5 -152.5t105.5 -265.5q0 -202 -165.5 -349.5t-448.5 -154.5q-4 5 -9.5 7t-7.5 2
q-202 0 -338.5 67.5t-200 177.5t-63.5 238h217q17 -149 131.5 -216t237.5 -75q200 0 314 83.5t120 227.5q0 153 -110 234.5t-291 81.5h-107v196z" />
    <glyph glyph-name="onesuperior" unicode="&#xb9;" horiz-adv-x="1360" 
d="M721 2642q-216 -172 -418 -258v184q224 90 426 271h201v-1680h-209v1483z" />
    <glyph glyph-name="onequarter" unicode="&#xbc;" horiz-adv-x="3416" 
d="M2568 401h-872v127l823 1176h258v-1110h254v-193h-254v-401h-209v401zM2568 594v885l-586 -885h586zM848 2642q-176 -155 -418 -258v184q226 91 434 271h201v-1680h-217v1483zM745 0l1713 2896h213l-1696 -2896h-230z" />
    <glyph glyph-name="onehalf" unicode="&#xbd;" horiz-adv-x="3416" 
d="M745 0l1713 2896h213l-1696 -2896h-230zM2064 0v168q111 86 288.5 257t339.5 358t220 307q58 109 58 196q0 132 -99.5 195t-228.5 63q-133 0 -241 -70.5t-120 -216.5h-200q0 224 162 352t399 128q296 0 422.5 -135t126.5 -308q0 -130 -86 -282.5t-209.5 -295.5t-268 -285
t-243.5 -238h831v-193h-1151zM848 2642q-176 -155 -418 -258v184q226 91 434 271h201v-1680h-217v1483z" />
    <glyph glyph-name="threequarters" unicode="&#xbe;" horiz-adv-x="3416" 
d="M2568 401h-872v127l823 1176h258v-1110h254v-193h-254v-401h-209v401zM2568 594v885l-586 -885h586zM745 0l1713 2896h213l-1696 -2896h-230zM598 2150q57 0 90 -8q191 6 288 92.5t97 214.5q0 131 -117.5 192.5t-259.5 61.5q-325 -11 -368 -254h-217q5 234 183 340.5
t394 106.5q261 0 430.5 -114t175.5 -333q0 -128 -86 -241t-286 -152v-8q173 -37 285 -155.5t112 -290.5q0 -125 -78.5 -232.5t-223 -171t-329.5 -63.5q-202 0 -338.5 67.5t-200 177.5t-63.5 238h217q17 -149 131.5 -216t237.5 -75q200 0 314 83.5t120 227.5
q0 153 -110 234.5t-291 81.5h-107v196z" />
    <glyph glyph-name="Eth" unicode="&#xd0;" horiz-adv-x="2961" 
d="M377 2961h831q399 0 686 -115t463 -322.5t257 -486.5t81 -620q-9 -345 -111.5 -608.5t-292.5 -444.5t-458 -272.5t-608 -91.5h-848v1544h-291v201h291v1216zM639 2712v-967h451v-201h-451v-1294h664q348 0 596 141.5t378.5 434t130.5 726.5q-6 277 -90.5 495t-244.5 366
t-393 223.5t-529 75.5h-512z" />
    <glyph glyph-name="Yacute" unicode="&#xdd;" horiz-adv-x="2503" 
d="M33 2961h344l905 -1433l901 1433h291l-1081 -1675v-1286h-275v1282zM1409 3801h328l-520 -586h-177z" />
    <glyph glyph-name="Thorn" unicode="&#xde;" horiz-adv-x="2503" 
d="M410 2961h262v-409h594q289 0 536 -81t402 -267.5t155 -483.5q0 -303 -150.5 -491.5t-392 -268t-530.5 -79.5h-606v-881h-270v2961zM680 2306v-1188h696q195 0 352.5 61.5t251 196.5t93.5 344q0 291 -187.5 438.5t-533.5 147.5h-672z" />
    <glyph glyph-name="eth" unicode="&#xf0;" 
d="M184 1057q9 301 135.5 523t391 347t665.5 129q-27 96 -149.5 217t-227.5 185l-311 -258l-94 118l262 217q-176 140 -401 209l106 217q324 -141 479 -274l328 283l102 -131l-294 -246q389 -288 655 -704t266 -898q0 -231 -67 -424t-194.5 -335.5t-304 -220t-388.5 -77.5
h-8q-205 4 -379 85t-303.5 232t-199 354.5t-69.5 451.5zM446 1057q0 -252 85.5 -455.5t240 -320.5t354.5 -121q223 0 383 124t241 327t81 438q0 202 -82.5 381.5t-243.5 290t-379 110.5q-199 -7 -351.5 -111t-236 -277t-92.5 -386z" />
    <glyph glyph-name="yacute" unicode="&#xfd;" horiz-adv-x="2048" 
d="M33 2056h295l696 -1720l688 1720h270l-733 -1839l-401 -999h-270l311 782zM1184 2896h327l-520 -586h-176z" />
    <glyph glyph-name="thorn" unicode="&#xfe;" 
d="M537 2961v-1208l8 -8q89 170 287 273.5t425 103.5q277 0 464.5 -151t277.5 -399t90 -532q0 -325 -105 -577.5t-291 -390.5t-419 -138q-478 13 -729 385h-8v-1101h-250v3743h250zM537 1090q0 -271 71.5 -477.5t223.5 -323.5t385 -121q227 0 362.5 133.5t189.5 338.5
t54 441q0 333 -155 574t-476 241q-219 0 -366 -108.5t-218 -291.5t-71 -406z" />
    <glyph glyph-name="space" unicode=" " horiz-adv-x="1135" 
 />
    <glyph glyph-name="exclam" unicode="!" horiz-adv-x="1593" 
d="M688 705l-57 2256h336l-54 -2256h-225zM631 352h327v-352h-327v352z" />
    <glyph glyph-name="quotedbl" unicode="&#x22;" horiz-adv-x="1135" 
d="M242 2961h204v-929h-204v929zM905 2961v-929h-217v929h217z" />
    <glyph glyph-name="numbersign" unicode="#" 
d="M688 1737h-455v237h488l127 865h242l-132 -865h562l118 865h242l-127 -865h406v-237h-439l-82 -561h418v-246h-454l-132 -930h-237l127 930h-561l-135 -930h-238l143 930h-450v246h479zM1479 1737h-549l-90 -561h561z" />
    <glyph glyph-name="dollar" unicode="$" 
d="M1032 1311q-259 90 -405 157t-272 222t-130 407q0 195 111 381.5t297.5 302t398.5 115.5v201h201v-201q260 -11 445.5 -112.5t281.5 -261t104 -339.5h-286q0 128 -64.5 236t-187.5 173.5t-293 69.5v-1126q297 -85 487.5 -184.5t292 -251.5t101.5 -379q0 -261 -127 -438.5
t-329 -263t-425 -85.5v-213h-201v213q-366 15 -615 208.5t-249 578.5h287q0 -494 577 -537v1127zM1233 1266v-1082q132 0 269.5 66t229 189.5t91.5 281.5q0 136 -63.5 231t-154.5 152.5t-195.5 96.5t-176.5 65zM1032 2654q-150 -4 -269 -77t-185 -192.5t-66 -254.5
q0 -153 65 -255.5t176 -164.5t279 -117v1061z" />
    <glyph glyph-name="percent" unicode="%" horiz-adv-x="4096" 
d="M1561 2105q0 332 -129 469.5t-306 137.5q-226 0 -319.5 -187t-93.5 -428q0 -218 107.5 -393.5t305.5 -175.5q161 4 258 95t137 221t40 261zM479 2122q6 371 206.5 572.5t449.5 201.5q175 0 324.5 -91t238 -271t88.5 -429q-4 -234 -98 -407t-244 -264t-318 -91
q-169 5 -317.5 95t-239 265t-90.5 419zM2679 2896h233l-1593 -2896h-238zM2310 713q0 210 80.5 388.5t230.5 282t349 103.5q197 0 344.5 -110t225 -289t77.5 -375q0 -316 -175.5 -547.5t-471.5 -231.5q-163 4 -286.5 69.5t-207 176.5t-125 249.5t-41.5 283.5zM3391 713
q0 142 -41.5 274.5t-136 222t-243.5 93.5q-203 0 -319 -166t-116 -416q0 -260 111 -427t324 -167q135 0 229.5 78t143 211.5t48.5 296.5z" />
    <glyph glyph-name="ampersand" unicode="&#x26;" horiz-adv-x="2961" 
d="M2056 569l-930 992q-93 -65 -246 -175.5t-262.5 -252t-113.5 -310.5q17 -106 33 -151q70 -219 273 -354.5t464 -141.5q450 14 782 393zM1176 1888q409 326 409 590q0 93 -53 160.5t-137.5 103t-169.5 35.5q-158 0 -254 -77.5t-115 -221.5q13 -258 320 -590zM958 1745
q-136 154 -220 270.5t-126.5 228t-42.5 234.5q0 148 76 270.5t223 196.5t349 78q156 0 298.5 -52.5t239.5 -159.5t117 -259q0 -251 -140 -449t-397 -391l865 -921q88 206 142 496.5t54 518.5q0 15 -2 43t-2 39h287q-20 -253 -54 -490t-92.5 -444.5t-148.5 -347.5l561 -606
h-385l-352 393q-369 -446 -897 -459q-270 0 -520 94t-408 291t-158 488q0 171 72 313.5t182.5 252t240.5 203t238 169.5z" />
    <glyph glyph-name="quotesingle" unicode="'" horiz-adv-x="1135" 
d="M504 2961h336l-295 -839h-217z" />
    <glyph glyph-name="parenleft" unicode="(" horiz-adv-x="1135" 
d="M754 2961h204q-360 -953 -360 -1675q0 -334 87 -768.5t273 -910.5h-204q-195 483 -319 901.5t-124 757.5q0 204 33.5 411.5t91.5 406.5t126 380.5t192 496.5z" />
    <glyph glyph-name="parenright" unicode=")" horiz-adv-x="1135" 
d="M184 2961h201q108 -272 176 -454t127.5 -380.5t97 -415.5t37.5 -425q0 -207 -34 -408t-89.5 -387.5t-138 -416.5t-168.5 -467h-209q122 332 199.5 599.5t119.5 538t42 541.5q-4 290 -47 553t-120 530.5t-194 591.5z" />
    <glyph glyph-name="asterisk" unicode="*" 
d="M1024 2327l-377 512l217 122l279 -561l274 561l213 -114l-364 -520l589 49v-242l-581 49l348 -528l-213 -111l-266 570l-279 -578l-209 119l361 520l-590 -41v242z" />
    <glyph glyph-name="plus" unicode="+" horiz-adv-x="2703" 
d="M1233 1151v905h237v-905h906v-246h-906v-905h-237v905h-905v246h905z" />
    <glyph glyph-name="comma" unicode="," horiz-adv-x="1135" 
d="M418 336h336l-299 -840h-213z" />
    <glyph glyph-name="hyphen" unicode="-" horiz-adv-x="1135" 
d="M57 967v250h1033v-250h-1033z" />
    <glyph glyph-name="period" unicode="." horiz-adv-x="1135" 
d="M410 352h327v-352h-327v352z" />
    <glyph glyph-name="slash" unicode="/" horiz-adv-x="1135" 
d="M967 2961h266l-1073 -3354h-254z" />
    <glyph glyph-name="zero" unicode="0" 
d="M1794 1520q-19 1126 -668 1126q-316 0 -470 -295.5t-169 -798.5q-4 -53 -4 -168q0 -320 57.5 -587t202.5 -438t392 -175q345 0 502 334.5t157 898.5v103zM201 1552q5 337 87.5 638.5t290 503.5t556.5 202q356 0 565.5 -199.5t292.5 -507.5t88 -678q0 -750 -212 -1163.5
t-726 -413.5h-8q-371 8 -578 220t-281.5 537.5t-74.5 733.5v127z" />
    <glyph glyph-name="one" unicode="1" 
d="M1110 2552q-250 -245 -639 -430v270q312 120 655 447h258v-2839h-274v2552z" />
    <glyph glyph-name="two" unicode="2" 
d="M209 0v279q126 105 323 297.5t401 415.5t376 444t243 370q95 202 95 361q0 245 -173 366t-376 121q-220 -12 -393 -139.5t-185 -425.5h-287q4 253 121 436.5t314.5 277t429.5 93.5q311 0 503.5 -114.5t272.5 -281t80 -333.5q-11 -249 -169 -524t-380 -524.5
t-467.5 -479.5t-417.5 -389h1462v-250h-1773z" />
    <glyph glyph-name="three" unicode="3" 
d="M922 1610q41 -4 122 -4q311 0 485.5 149.5t174.5 366.5q0 169 -90.5 289.5t-237.5 181.5t-311 61q-293 -5 -441 -157t-169 -363h-279q12 387 285.5 574.5t595.5 187.5q195 -3 364 -51.5t296 -144t199 -237.5t75 -329q0 -210 -133.5 -395.5t-440.5 -251.5v-17
q600 -151 615 -700q0 -217 -113.5 -408.5t-334.5 -309.5t-519 -118q-309 0 -519.5 117.5t-312 305.5t-106.5 397h291q18 -302 211 -430.5t403 -139.5q323 0 522 158t199 432q0 180 -83.5 312t-239 203t-361.5 71q-49 0 -147 -8v258z" />
    <glyph glyph-name="four" unicode="4" 
d="M1425 655h-1339v226l1266 1958h336v-1934h454v-250h-454v-655h-263v655zM1425 905v1630l-1007 -1630h1007z" />
    <glyph glyph-name="five" unicode="5" 
d="M377 2839h1560v-246h-1306l-45 -1016l8 -8q251 295 598 295q254 0 457.5 -115t317.5 -329.5t114 -497.5q0 -272 -120 -498.5t-337 -358t-489 -131.5q-259 4 -456 95t-306 262.5t-115 404.5h287q0 -111 55 -227t185.5 -198.5t340.5 -86.5q204 0 355 87t232 251t81 391
q0 219 -70 378t-211.5 244.5t-345.5 86.5q-203 0 -370 -112.5t-211 -317.5h-275z" />
    <glyph glyph-name="six" unicode="6" 
d="M471 1376h8q180 440 713 463q288 0 490 -118.5t304.5 -324.5t110.5 -458q0 -244 -94.5 -476t-299 -380t-511.5 -148h-41q-300 17 -496 150.5t-297.5 337t-137.5 425.5t-36 451v119q20 569 157.5 897t353.5 455t497 127q301 0 495.5 -102t281.5 -266t87 -353h-287
q-6 211 -162.5 341t-414.5 130q-211 -7 -370.5 -120t-255 -392.5t-95.5 -757.5zM1806 938q-19 278 -156 479t-458 201q-199 0 -353.5 -96.5t-236.5 -260t-82 -356.5q0 -158 45.5 -288t132 -226t204.5 -147.5t265 -59.5q183 0 329 84t228 242.5t82 370.5v57z" />
    <glyph glyph-name="seven" unicode="7" 
d="M209 2839h1806v-238l-1102 -2601h-315l1139 2593h-1528v246z" />
    <glyph glyph-name="eight" unicode="8" 
d="M791 1479q-244 18 -409 214t-165 466q7 245 142 412t346 246t446 79q265 0 472.5 -98t321.5 -266t119 -373q0 -257 -163 -443t-406 -237h-8q171 -42 308.5 -131t221.5 -234.5t88 -339.5q0 -250 -125 -442t-344 -295t-485 -103q-297 0 -518.5 102t-339 293t-117.5 445
q0 255 157.5 444.5t457.5 251.5v9zM1798 2159q-1 173 -96 286.5t-240 167t-303 58.5q-161 0 -315.5 -53t-255.5 -171t-101 -297q0 -251 169 -399.5t495 -148.5q224 4 369 80.5t211.5 201.5t66.5 275zM1815 774q0 137 -72 273t-224 224.5t-376 88.5q-243 -4 -396 -91.5
t-218.5 -220.5t-65.5 -274q0 -164 88.5 -299t248 -213t359.5 -78q308 7 482 169.5t174 420.5z" />
    <glyph glyph-name="nine" unicode="9" 
d="M1798 1528q-105 -217 -312.5 -327.5t-420.5 -110.5q-264 0 -466 118t-310.5 318.5t-108.5 439.5q0 53 4 82q24 257 143 450t318 295.5t453 102.5q441 -11 660.5 -232t275.5 -493.5t63 -618.5q0 -23 2 -68t2 -67q0 -1447 -1044 -1483q-246 0 -436 92t-301 265t-127 405
h286q0 -254 169.5 -383t457.5 -129q150 5 276 81.5t220.5 235.5t149 415t54.5 604zM1761 2015q-5 149 -90.5 298.5t-236.5 245t-336 95.5q-303 0 -465 -188.5t-162 -491.5q0 -300 165.5 -477.5t436.5 -177.5q177 0 335.5 75t255.5 225.5t97 362.5v33z" />
    <glyph glyph-name="colon" unicode=":" horiz-adv-x="1135" 
d="M410 2056h327v-352h-327v352zM410 352h327v-352h-327v352z" />
    <glyph glyph-name="semicolon" unicode=";" horiz-adv-x="1135" 
d="M496 328h335l-294 -832h-218zM438 2056h332v-352h-332v352z" />
    <glyph glyph-name="less" unicode="&#x3c;" horiz-adv-x="2703" 
d="M328 922v213l2048 921v-262l-1729 -762l1729 -807v-266z" />
    <glyph glyph-name="equal" unicode="=" horiz-adv-x="2703" 
d="M328 1552h2048v-249h-2048v249zM328 754h2048v-250h-2048v250z" />
    <glyph glyph-name="greater" unicode="&#x3e;" horiz-adv-x="2703" 
d="M2376 922l-2048 -922v262l1728 770l-1728 807v258l2048 -962v-213z" />
    <glyph glyph-name="question" unicode="?" horiz-adv-x="2048" 
d="M999 352v-352h-327v352h327zM713 696v422q0 130 88 238.5t278 284t288 311.5t103 305q0 277 -184 394.5t-463 117.5q-244 0 -397 -57v258q217 45 414 45q396 0 650.5 -180.5t254.5 -544.5q-3 -219 -108.5 -388.5t-246 -302.5t-286.5 -280.5t-146 -253.5v-369h-245z" />
    <glyph glyph-name="at" unicode="@" horiz-adv-x="3281" 
d="M2273 2318h271l-402 -1192q-5 -24 -30.5 -111t-30.5 -134q13 -107 119 -107q181 0 330 169.5t233 396.5t84 364q-4 379 -174.5 628.5t-431 365t-545.5 120.5q-384 0 -676 -193t-448.5 -500t-161.5 -638q0 -288 100 -535t275.5 -426.5t403.5 -278.5t482 -104
q187 0 385.5 50.5t391 174.5t337.5 328h238q-117 -211 -281.5 -360t-352.5 -237t-378.5 -126.5t-363.5 -38.5q-318 13 -590 140t-474 342.5t-310.5 486t-108.5 555.5q0 15 2 44t2 42q24 393 183.5 679t391.5 459t480 253t456 80q291 -3 544 -89.5t445 -248.5t301.5 -390.5
t118.5 -508.5q0 -285 -93 -515t-240 -388t-311 -242.5t-302 -87.5q-3 4 -5.5 6l-2.5 2q-131 0 -219 63t-117 146q-98 -102 -242.5 -151.5t-281.5 -49.5q-250 6 -389.5 183.5t-139.5 472.5q12 219 93 430.5t220.5 383t317.5 270.5t377 99q165 -6 265 -66t190 -200zM1937 1393
q103 234 103 413q0 169 -76 256.5t-203 87.5q-94 0 -209.5 -57.5t-221 -172.5t-179.5 -287.5t-94 -399.5q0 -211 97 -318.5t206 -107.5q165 0 319.5 165.5t257.5 420.5z" />
    <glyph glyph-name="A" unicode="A" horiz-adv-x="2736" 
d="M1208 2961h312l1183 -2961h-295l-311 799h-1474l-312 -799h-270zM1999 1049l-639 1663l-647 -1663h1286z" />
    <glyph glyph-name="B" unicode="B" horiz-adv-x="2736" 
d="M410 2961h1007q269 0 468.5 -93.5t306 -261.5t106.5 -382q0 -254 -157.5 -436.5t-395.5 -243.5q270 -45 471 -226.5t201 -543.5q0 -191 -86.5 -367.5t-283.5 -291.5t-503 -115h-1134v2961zM672 2712v-1057h655q331 0 505.5 145t174.5 391q0 521 -688 521h-647zM672 1409
v-1159h753q349 0 527 139t178 451q-6 320 -226 444.5t-638 124.5h-594z" />
    <glyph glyph-name="C" unicode="C" horiz-adv-x="2736" 
d="M2224 2265q-25 228 -212 370t-492 142q-488 -6 -732 -363t-251 -903q0 -237 46.5 -465t157.5 -423.5t303.5 -315t475.5 -123.5q212 0 370 76t250 199.5t117 261.5h287q-24 -174 -145.5 -355.5t-348 -306.5t-539.5 -125q-437 0 -720.5 225t-412 583.5t-128.5 768.5
q5 383 126.5 721t401 559t725.5 232q243 0 466.5 -77.5t374 -248.5t167.5 -432h-287z" />
    <glyph glyph-name="D" unicode="D" horiz-adv-x="2961" 
d="M377 2961h831q399 0 686 -115t463 -322.5t257 -486.5t81 -620q-9 -345 -111.5 -608.5t-292.5 -444.5t-458 -272.5t-608 -91.5h-848v2961zM639 2712v-2462h664q348 0 596 141.5t378.5 434t130.5 726.5q-6 277 -90.5 495t-244.5 366t-393 223.5t-529 75.5h-512z" />
    <glyph glyph-name="E" unicode="E" horiz-adv-x="2503" 
d="M418 2961h1757v-249h-1487v-1065h1434v-238h-1434v-1159h1553v-250h-1823v2961z" />
    <glyph glyph-name="F" unicode="F" 
d="M393 2961h1671v-249h-1409v-1041h1360v-246h-1360v-1425h-262v2961z" />
    <glyph glyph-name="G" unicode="G" horiz-adv-x="2961" 
d="M1577 1511h1008v-1392q-257 -102 -496.5 -138.5t-511.5 -46.5q-417 0 -714 194.5t-450 542t-155 791.5q4 25 4 49q3 241 69.5 498.5t212.5 487t389.5 375t586.5 151.5q278 0 513 -104t377 -285t158 -402h-303q-102 525 -745 545q-297 0 -517 -168.5t-336.5 -460
t-121.5 -653.5q5 -5 6.5 -9.5t1.5 -6.5q0 -478 147.5 -761t375 -399t501.5 -135q160 0 378 37.5t363 89.5v955h-741v245z" />
    <glyph glyph-name="H" unicode="H" horiz-adv-x="2961" 
d="M410 2961h262v-1298h1618v1298h262v-2961h-262v1417h-1618v-1417h-262v2961z" />
    <glyph glyph-name="I" unicode="I" horiz-adv-x="1135" 
d="M438 2978h267v-2978h-267v2978z" />
    <glyph glyph-name="J" unicode="J" horiz-adv-x="2048" 
d="M1425 2961h263v-2056q0 -289 -101.5 -509t-301.5 -341t-486 -121q-324 7 -511.5 227.5t-230.5 567.5h279q27 -240 166.5 -392.5t378.5 -152.5q159 0 283.5 99t192.5 264.5t68 357.5v2056z" />
    <glyph glyph-name="K" unicode="K" horiz-adv-x="2503" 
d="M430 2961h266l9 -1306l1318 1306h336l-1360 -1339l1487 -1622h-364l-1417 1544l-9 -1544h-266v2961z" />
    <glyph glyph-name="L" unicode="L" 
d="M410 2961h262v-2711h1495v-250h-1757v2961z" />
    <glyph glyph-name="M" unicode="M" horiz-adv-x="3863" 
d="M401 2961h422l1114 -2576l1135 2576h410v-2961h-275v2736h-8l-1126 -2736h-275l-1126 2720h-8v-2720h-263v2961z" />
    <glyph glyph-name="N" unicode="N" horiz-adv-x="2961" 
d="M377 2961h303l1630 -2601h8v2601h267v-2961h-336l-1602 2560h-8v-2560h-262v2961z" />
    <glyph glyph-name="O" unicode="O" horiz-adv-x="3183" 
d="M270 1511q5 439 156.5 779t446 532t712.5 201q451 0 749.5 -209t438 -554.5t139.5 -748.5v-24q0 -312 -75 -588.5t-235.5 -492.5t-417.5 -342t-607 -130q-337 0 -588.5 129.5t-409.5 351t-233.5 503.5t-75.5 593zM561 1511q5 -383 116 -682.5t341 -472t567 -172.5
q341 4 576 172t350 460.5t115 670.5q0 270 -64.5 503.5t-194.5 410.5t-329.5 276.5t-460.5 99.5q-325 -4 -555.5 -187t-345.5 -473t-115 -606z" />
    <glyph glyph-name="P" unicode="P" horiz-adv-x="2503" 
d="M410 2961h876q463 0 768 -196.5t305 -634.5q0 -306 -150.5 -495t-391.5 -269t-531 -80h-606v-1286h-270v2961zM680 2712v-1176h696q195 0 352.5 59t251 191.5t93.5 343.5q0 287 -187.5 434.5t-533.5 147.5h-672z" />
    <glyph glyph-name="Q" unicode="Q" horiz-adv-x="3183" 
d="M270 1511q5 439 156.5 779t446 532t712.5 201q451 0 749.5 -209t438 -554.5t139.5 -748.5q0 -391 -134.5 -738t-418.5 -556q371 33 529 33q37 0 82 -4t53 -4v-242h-664q-140 0 -278 16q-92 0 -244 -41t-260 -41q-337 0 -588.5 129.5t-409.5 351t-233.5 503.5t-75.5 593z
M561 1511q5 -383 116 -682.5t341 -472t567 -172.5q341 4 576 172t350 460.5t115 670.5q0 270 -64.5 503.5t-194.5 410.5t-329.5 276.5t-460.5 99.5q-325 -4 -555.5 -187t-345.5 -473t-115 -606z" />
    <glyph glyph-name="R" unicode="R" horiz-adv-x="2736" 
d="M426 2961h1061q273 0 478 -89t316 -256.5t111 -391.5q0 -291 -149 -440.5t-428 -231.5v-8q224 -36 352 -192q94 -100 128.5 -372.5t68.5 -579t110 -400.5h-307q-49 111 -76.5 356.5t-55 494.5t-73.5 349q-70 139 -189.5 174t-310.5 35h-774v-1409h-262v2961zM688 2712
v-1057h705q712 0 712 536q0 521 -651 521h-766z" />
    <glyph glyph-name="S" unicode="S" horiz-adv-x="2503" 
d="M528 770q0 -546 648 -586q251 0 424.5 70.5t264 184t109.5 241.5q0 440 -397 569q-364 116 -514 168t-338.5 161t-303 268t-114.5 378q0 62 4 94q21 187 141 345.5t322 254.5t451 105q443 0 696 -181.5t295 -523.5h-287q-22 459 -696 459q-283 0 -462 -161.5t-185 -374.5
q13 -296 327 -455q165 -84 470 -185t473 -177.5t287 -228t122 -404.5q0 -243 -96.5 -408.5t-255.5 -260t-349 -137t-405 -51.5q-252 0 -459.5 106.5t-329 298.5t-128.5 431h286z" />
    <glyph glyph-name="T" unicode="T" 
d="M57 2961h2167v-249h-942v-2712h-266v2712h-959v249z" />
    <glyph glyph-name="U" unicode="U" horiz-adv-x="2961" 
d="M401 2961h263v-1888q0 -283 107.5 -484.5t295.5 -303t428 -101.5q242 4 423.5 114.5t280.5 313t99 469.5v1880h262v-1929q0 -308 -123.5 -555.5t-360.5 -390.5t-565 -152q-547 0 -828.5 309.5t-281.5 805.5v1912z" />
    <glyph glyph-name="V" unicode="V" horiz-adv-x="2503" 
d="M25 2961h286l955 -2699h8l942 2699h262l-1069 -2961h-303z" />
    <glyph glyph-name="W" unicode="W" horiz-adv-x="4096" 
d="M41 2961h278l697 -2699h8l864 2699h320l905 -2699h8l688 2699h254l-782 -2961h-361l-872 2687h-8l-848 -2687h-377z" />
    <glyph glyph-name="X" unicode="X" horiz-adv-x="2503" 
d="M86 2961h344l844 -1249l868 1249h299l-1024 -1433l1057 -1528h-344l-897 1327l-897 -1327h-303l1057 1528z" />
    <glyph glyph-name="Y" unicode="Y" horiz-adv-x="2503" 
d="M33 2961h344l905 -1433l901 1433h291l-1081 -1675v-1286h-275v1282z" />
    <glyph glyph-name="Z" unicode="Z" 
d="M160 2961h1962v-249l-1651 -2462h1651v-250h-1962v250l1638 2462h-1638v249z" />
    <glyph glyph-name="bracketleft" unicode="[" horiz-adv-x="1135" 
d="M344 2961h569v-208h-299v-2946h299v-200h-569v3354z" />
    <glyph glyph-name="backslash" unicode="\" horiz-adv-x="1135" 
d="M-184 2961h270l1233 -2961h-262z" />
    <glyph glyph-name="bracketright" unicode="]" horiz-adv-x="1135" 
d="M233 2961h558v-3354h-558v200h295v2946h-295v208z" />
    <glyph glyph-name="asciicircum" unicode="^" horiz-adv-x="2703" 
d="M1249 2839h205l954 -1864h-233l-823 1610l-807 -1610h-242z" />
    <glyph glyph-name="underscore" unicode="_" horiz-adv-x="2048" 
d="M0 -504v225h2048v-225h-2048z" />
    <glyph glyph-name="grave" unicode="`" horiz-adv-x="1135" 
d="M82 2896h328l372 -586h-184z" />
    <glyph glyph-name="a" unicode="a" horiz-adv-x="2048" 
d="M242 1536q96 586 807 586q688 -16 688 -680v-1106q0 -52 10.5 -168.5t13.5 -167.5h-258l-8 303h-8q-58 -148 -244.5 -254.5t-386.5 -114.5q-169 0 -302.5 50t-223.5 136.5t-136 197.5t-51 235q9 16 9 33q6 221 121.5 364t295.5 217q139 65 311.5 77.5t614.5 21.5v184
q0 196 -110 318t-353 128q-490 0 -536 -360h-254zM1495 1040q-289 -4 -449 -14.5t-307 -54t-234 -139.5t-87 -263q0 -200 132.5 -305t330.5 -112q254 13 405 151q115 106 162 274t47 463z" />
    <glyph glyph-name="b" unicode="b" 
d="M287 2961h250v-1224q223 357 655 385q260 0 458 -116t312.5 -347t126.5 -561q0 -337 -98 -601.5t-285 -413.5t-440 -149h-9q-237 7 -423.5 111.5t-296.5 282.5q-6 -22 -10 -149t-7 -179h-258q25 331 25 463v2498zM1823 1098q0 162 -56 344.5t-198.5 318t-384.5 135.5
q-208 -4 -353 -110t-219.5 -294t-74.5 -427q0 -420 179 -658.5t533 -238.5q190 4 319 121t192 324t63 485z" />
    <glyph glyph-name="c" unicode="c" horiz-adv-x="2048" 
d="M1630 1425q-15 226 -158 345.5t-391 125.5q-205 0 -344.5 -123t-208 -314t-73.5 -394q0 -211 63 -420.5t201.5 -349t353.5 -143.5q9 4 13 6l4 2q134 5 251.5 59t194 161t86.5 259h274q-48 -348 -243.5 -523t-554.5 -182q-240 0 -446.5 118.5t-332.5 373.5t-126 639
q4 349 138.5 588t341.5 354t425 115q230 0 409 -90t280.5 -249.5t108.5 -357.5h-266z" />
    <glyph glyph-name="d" unicode="d" 
d="M1991 2961v-2523q0 -174 24 -438h-254l-16 303l-8 16q-106 -171 -291 -274t-381 -111q-302 0 -499.5 158.5t-287 406t-94.5 517.5q9 33 9 82q21 557 273.5 790.5t549.5 233.5q509 -11 729 -393v1232h246zM455 1090q0 -436 150.5 -679t459.5 -243q232 4 383 126t220 324.5
t69 454.5q0 248 -76.5 434t-224 287.5t-355.5 101.5q-224 -4 -365.5 -125t-201 -303t-59.5 -378z" />
    <glyph glyph-name="e" unicode="e" 
d="M1794 1200q-28 352 -202 514t-441 182q-138 0 -276 -58.5t-249.5 -215t-146.5 -422.5h1315zM1778 655h262q-100 -382 -332.5 -544t-556.5 -177q-257 0 -442.5 97.5t-294.5 254t-159.5 344t-53.5 378.5q8 24 8 57q6 260 82.5 461t205.5 333t293.5 197.5t352.5 65.5
q257 -6 437 -101t286.5 -257t152 -362t45.5 -435h-1593q0 -202 68 -386t226.5 -302.5t410.5 -118.5q186 0 316 84t198 198t88 213z" />
    <glyph glyph-name="f" unicode="f" horiz-adv-x="1360" 
d="M504 2056v479q0 246 131 358.5t332 112.5q118 0 266 -36v-201q-114 16 -168 16q-311 0 -311 -266v-463h463v-225h-463v-1831h-250v1831h-418v225h418z" />
    <glyph glyph-name="g" unicode="g" 
d="M1761 2056h254q-24 -357 -24 -360v-1553q0 -914 -893 -925q-380 0 -605 142.5t-231 397.5q5 0 6.5 3.5t1.5 5.5h267q23 -160 178 -244t383 -84q220 0 366.5 92.5t213.5 224t67 244.5v393h-8q-78 -165 -261 -275t-419 -110q-278 0 -475.5 139t-297.5 376t-100 517
q5 206 45.5 386t138.5 337t270.5 255t426.5 104q210 0 368 -93t304 -292l8 16zM1745 1098q-6 179 -57 325t-138 251.5t-204 163.5t-248 58q-222 0 -369 -127.5t-215 -320t-68 -383.5q0 -213 73 -401.5t213.5 -305t332.5 -125.5q305 0 492.5 217t187.5 599v49z" />
    <glyph glyph-name="h" unicode="h" 
d="M328 2961h250v-1216h8q59 121 218.5 249t436.5 128q216 -5 376 -96.5t248.5 -278.5t88.5 -465v-1282h-250v1335q0 132 -45 256t-165.5 212.5t-334.5 92.5q-195 0 -326 -103.5t-193 -259.5t-62 -316v-1217h-250v2961z" />
    <glyph glyph-name="i" unicode="i" horiz-adv-x="913" 
d="M311 2961h287v-307h-287v307zM328 2056h250v-2056h-250v2056z" />
    <glyph glyph-name="j" unicode="j" horiz-adv-x="913" 
d="M311 2961h287v-307h-287v307zM328 2056h250v-2306q0 -199 -35.5 -311.5t-139 -168.5t-305.5 -56q-13 0 -43 2t-47 2v221q145 0 214 31.5t87.5 90t18.5 169.5v2326z" />
    <glyph glyph-name="k" unicode="k" horiz-adv-x="2048" 
d="M352 2961h246v-1744l995 839h320l-1041 -889l1119 -1167h-312l-1081 1110v-1110h-246v2961z" />
    <glyph glyph-name="l" unicode="l" horiz-adv-x="913" 
d="M328 2961h250v-2961h-250v2961z" />
    <glyph glyph-name="m" unicode="m" horiz-adv-x="3641" 
d="M586 1745q79 162 244 269.5t411 107.5q191 0 379 -109.5t268 -349.5q285 444 697 459q270 0 436.5 -112t237.5 -290t71 -393v-1327h-250v1327q0 248 -135.5 408.5t-433.5 160.5q-138 -5 -267.5 -82t-213.5 -230.5t-84 -375.5v-1208h-242v1343q0 149 -57 271.5
t-176.5 198.5t-294.5 83q-176 0 -315 -88t-215.5 -244.5t-76.5 -355.5v-1208h-241v1593q0 66 -25 463h258l8 -303z" />
    <glyph glyph-name="n" unicode="n" 
d="M586 1753q84 160 252 264.5t403 104.5q214 0 374.5 -92.5t249.5 -277t89 -449.5v-1303h-250v1343q0 149 -57 271.5t-176.5 198.5t-294.5 83q-176 0 -313 -88t-211 -244.5t-74 -355.5v-1208h-250v1602q0 243 -25 454h258l17 -303h8z" />
    <glyph glyph-name="o" unicode="o" 
d="M184 1057q8 221 73 413t184.5 337t291.5 228.5t385 86.5q225 0 406.5 -78.5t307 -224t192.5 -345t73 -442.5q0 -323 -120.5 -572.5t-338 -387.5t-495.5 -138h-8q-205 4 -379 85t-303.5 232t-199 354.5t-69.5 451.5zM446 1057q0 -252 85.5 -455.5t240 -320.5t354.5 -121
q223 0 383 124t241 327t81 438q0 349 -192 598t-521 249q-200 -12 -349.5 -122.5t-231.5 -297t-91 -419.5z" />
    <glyph glyph-name="p" unicode="p" 
d="M520 2056l17 -303l8 -8q89 170 287 273.5t425 103.5q277 0 464.5 -151t277.5 -399t90 -532q0 -325 -105 -577.5t-291 -390.5t-419 -138q-478 13 -729 385h-8v-1101h-250v2511q0 56 -3.5 99.5t-9.5 103.5t-12 124h258zM537 1090q0 -271 71.5 -477.5t223.5 -323.5t385 -121
q227 0 362.5 133.5t189.5 338.5t54 441q0 333 -155 574t-476 241q-219 0 -366 -108.5t-218 -291.5t-71 -406z" />
    <glyph glyph-name="q" unicode="q" 
d="M1761 2056h246v-41q0 -24 -8 -127t-8 -184v-2486h-246v1118q-123 -195 -320.5 -294t-392.5 -108q-269 0 -460 145t-287.5 394.5t-96.5 554.5q0 17 2.5 45.5t2.5 52.5q20 420 232.5 708t606.5 288q201 0 400 -98.5t313 -278.5zM1745 1057q0 377 -166.5 608t-488.5 231
q-216 0 -359.5 -115t-209.5 -296.5t-66 -386.5q0 -387 135 -664t475 -282q7 4 11.5 6l4.5 2q228 7 377.5 130.5t218 323t68.5 443.5z" />
    <glyph glyph-name="r" unicode="r" horiz-adv-x="1360" 
d="M303 2056h258l17 -303h8q145 369 532 369q35 0 89 -4t79 -4v-242q-106 16 -176 16q-172 0 -292.5 -83.5t-180 -229.5t-59.5 -334v-1241h-250v1753q0 100 -25 303z" />
    <glyph glyph-name="s" unicode="s" horiz-adv-x="2048" 
d="M455 561q11 -208 166.5 -301t377.5 -100q250 0 406 113t156 325q-9 102 -63.5 167t-137 101.5t-211 68t-236.5 56.5q-211 54 -343 107.5t-222 162.5t-90 291q0 254 195 412t546 158q341 0 540 -134t222 -436h-266q-12 161 -144 249.5t-352 94.5q-254 0 -357 -90
t-114 -196q0 -165 97 -237t297 -124q239 -56 347.5 -83.5t239 -90t217.5 -167t97 -261.5q0 -219 -114 -381.5t-304 -247t-406 -84.5q-305 0 -548.5 141.5t-266.5 485.5h271z" />
    <glyph glyph-name="t" unicode="t" horiz-adv-x="1360" 
d="M94 1831v225h410v438l250 107v-545h463v-225h-463v-1360q0 -306 295 -319q27 4 97.5 16t102.5 16v-209q-212 -32 -291 -32q-454 0 -454 434v1454h-410z" />
    <glyph glyph-name="u" unicode="u" 
d="M578 2056v-1319q0 -188 66 -315.5t184 -190.5t270 -63q172 0 310.5 83.5t217 242t78.5 370.5v1192h250v-1663q0 -115 20 -393h-254l-16 303l-8 8q-195 -351 -631 -377q-235 0 -401.5 102t-251 283.5t-84.5 417.5v1319h250z" />
    <glyph glyph-name="v" unicode="v" horiz-adv-x="2048" 
d="M57 2056h271l712 -1720l680 1720h271l-815 -2056h-279z" />
    <glyph glyph-name="w" unicode="w" horiz-adv-x="3408" 
d="M66 2056h270l614 -1737h8l627 1737h287l606 -1720h8l594 1720h271l-766 -2056h-234l-631 1778h-8l-639 -1778h-258z" />
    <glyph glyph-name="x" unicode="x" horiz-adv-x="2048" 
d="M102 2056h328l610 -823l615 823h258l-737 -991l798 -1065h-319l-664 897l-639 -897h-278l790 1057z" />
    <glyph glyph-name="y" unicode="y" horiz-adv-x="2048" 
d="M33 2056h295l696 -1720l688 1720h270l-733 -1839l-401 -999h-270l311 782z" />
    <glyph glyph-name="z" unicode="z" horiz-adv-x="1815" 
d="M160 2056h1495v-225l-1192 -1606h1192v-225h-1495v225l1208 1606h-1208v225z" />
    <glyph glyph-name="braceleft" unicode="{" horiz-adv-x="1135" 
d="M446 1282q119 -89 193 -232.5t74 -304.5v-659q0 -106 48 -192.5t128 -86.5h119v-200h-201q-62 0 -148.5 51t-149.5 151t-63 232v680q0 235 -77 334t-217 112v226q294 29 294 454v680q0 123 56 222.5t141.5 155.5t171.5 56h193v-208h-103q-192 0 -192 -304v-634
q0 -144 -68 -288t-199 -245z" />
    <glyph glyph-name="bar" unicode="|" horiz-adv-x="913" 
d="M328 2961h250v-2961h-250v2961z" />
    <glyph glyph-name="braceright" unicode="}" horiz-adv-x="1135" 
d="M688 1286q-120 87 -191 230.5t-71 306.5v655q0 102 -49.5 188.5t-126.5 86.5h-131v208h209q60 0 147 -51t150 -151t63 -232v-680q0 -233 77.5 -333t217.5 -113v-234q-295 -30 -295 -446v-680q0 -123 -56 -222.5t-141.5 -155.5t-171.5 -56h-200v200h114q193 0 193 312v635
q0 141 66 286.5t196 245.5z" />
    <glyph glyph-name="asciitilde" unicode="~" horiz-adv-x="2703" 
d="M328 889q135 208 278 311t332 103q96 -5 203 -42.5t287.5 -115.5t248 -103.5t129.5 -25.5q132 0 216.5 90.5t193.5 261.5l160 -135q-233 -440 -545 -451q-133 0 -255 46.5t-358 149.5t-305 103v0q-104 0 -184 -56t-132.5 -128t-133.5 -201z" />
    <glyph glyph-name="Adieresis" unicode="&#xc4;" horiz-adv-x="2736" 
d="M1208 2961h312l1183 -2961h-295l-311 799h-1474l-312 -799h-270zM1999 1049l-639 1663l-647 -1663h1286zM1577 3793h303v-361h-303v361zM864 3793h295v-361h-295v361z" />
    <glyph glyph-name="Aring" unicode="&#xc5;" horiz-adv-x="2736" 
d="M1208 2961h312l1183 -2961h-295l-311 799h-1474l-312 -799h-270zM1999 1049l-639 1663l-647 -1663h1286zM1016 3568q0 143 107.5 248.5t252.5 111.5q136 0 248.5 -101t112.5 -243q0 -169 -108 -277t-253 -108q-159 6 -259.5 120t-100.5 249zM1602 3568q0 81 -72 153
t-154 72q-90 0 -157.5 -71.5t-67.5 -145.5q0 -85 63.5 -160.5t169.5 -81.5q72 0 145 69.5t73 164.5z" />
    <glyph glyph-name="Ccedilla" unicode="&#xc7;" horiz-adv-x="2736" 
d="M250 1511q5 383 126.5 721t401 559t725.5 232q243 0 466.5 -77.5t374 -248.5t167.5 -432h-287q-25 228 -212 370t-492 142q-488 -6 -732 -363t-251 -903q0 -237 46.5 -465t157.5 -423.5t303.5 -315t475.5 -123.5q212 0 370 76t250 199.5t117 261.5h287
q-24 -174 -145.5 -355.5t-348 -306.5t-539.5 -125q-20 0 -56.5 4.5t-70.5 4.5l-41 -152h50q360 0 360 -270q0 -137 -130.5 -206t-287.5 -69q-81 0 -151.5 14.5t-141.5 39t-129 45.5l29 110q236 -94 393 -94q146 0 193 111v57q0 85 -58.5 114.5t-158.5 37.5q-55 -17 -119 -17
l94 287q-358 58 -591.5 289t-339 564.5t-105.5 706.5z" />
    <glyph glyph-name="Eacute" unicode="&#xc9;" horiz-adv-x="2503" 
d="M418 2961h1757v-249h-1487v-1065h1434v-238h-1434v-1159h1553v-250h-1823v2961zM1417 3809h328l-520 -585h-176z" />
    <glyph glyph-name="Ntilde" unicode="&#xd1;" horiz-adv-x="2961" 
d="M377 2961h303l1630 -2601h8v2601h267v-2961h-336l-1602 2560h-8v-2560h-262v2961zM922 3367q37 180 141.5 258t222.5 78q82 0 217.5 -41.5t192.5 -44.5q135 0 200 135h152q-45 -173 -140.5 -255t-195.5 -89q-100 0 -224 41t-214 41q-159 0 -193 -123h-159z" />
    <glyph glyph-name="Odieresis" unicode="&#xd6;" horiz-adv-x="3183" 
d="M270 1511q5 439 156.5 779t446 532t712.5 201q451 0 749.5 -209t438 -554.5t139.5 -748.5v-24q0 -312 -75 -588.5t-235.5 -492.5t-417.5 -342t-607 -130q-337 0 -588.5 129.5t-409.5 351t-233.5 503.5t-75.5 593zM561 1511q5 -383 116 -682.5t341 -472t567 -172.5
q341 4 576 172t350 460.5t115 670.5q0 270 -64.5 503.5t-194.5 410.5t-329.5 276.5t-460.5 99.5q-325 -4 -555.5 -187t-345.5 -473t-115 -606zM1798 3809h307v-360h-307v360zM1090 3809h294v-360h-294v360z" />
    <glyph glyph-name="Udieresis" unicode="&#xdc;" horiz-adv-x="2961" 
d="M401 2961h263v-1888q0 -283 107.5 -484.5t295.5 -303t428 -101.5q242 4 423.5 114.5t280.5 313t99 469.5v1880h262v-1929q0 -308 -123.5 -555.5t-360.5 -390.5t-565 -152q-547 0 -828.5 309.5t-281.5 805.5v1912zM1688 3801h303v-360h-303v360zM975 3801h299v-360h-299
v360z" />
    <glyph glyph-name="aacute" unicode="&#xe1;" horiz-adv-x="2048" 
d="M242 1536q96 586 807 586q688 -16 688 -680v-1106q0 -52 10.5 -168.5t13.5 -167.5h-258l-8 303h-8q-58 -148 -244.5 -254.5t-386.5 -114.5q-169 0 -302.5 50t-223.5 136.5t-136 197.5t-51 235q9 16 9 33q6 221 121.5 364t295.5 217q139 65 311.5 77.5t614.5 21.5v184
q0 196 -110 318t-353 128q-490 0 -536 -360h-254zM1495 1040q-289 -4 -449 -14.5t-307 -54t-234 -139.5t-87 -263q0 -200 132.5 -305t330.5 -112q254 13 405 151q115 106 162 274t47 463zM1184 2896h327l-520 -586h-176z" />
    <glyph glyph-name="agrave" unicode="&#xe0;" horiz-adv-x="2048" 
d="M242 1536q96 586 807 586q688 -16 688 -680v-1106q0 -52 10.5 -168.5t13.5 -167.5h-258l-8 303h-8q-58 -148 -244.5 -254.5t-386.5 -114.5q-169 0 -302.5 50t-223.5 136.5t-136 197.5t-51 235q9 16 9 33q6 221 121.5 364t295.5 217q139 65 311.5 77.5t614.5 21.5v184
q0 196 -110 318t-353 128q-490 0 -536 -360h-254zM1495 1040q-289 -4 -449 -14.5t-307 -54t-234 -139.5t-87 -263q0 -200 132.5 -305t330.5 -112q254 13 405 151q115 106 162 274t47 463zM537 2896h327l377 -586h-184z" />
    <glyph glyph-name="acircumflex" unicode="&#xe2;" horiz-adv-x="2048" 
d="M242 1536q96 586 807 586q688 -16 688 -680v-1106q0 -52 10.5 -168.5t13.5 -167.5h-258l-8 303h-8q-58 -148 -244.5 -254.5t-386.5 -114.5q-169 0 -302.5 50t-223.5 136.5t-136 197.5t-51 235q9 16 9 33q6 221 121.5 364t295.5 217q139 65 311.5 77.5t614.5 21.5v184
q0 196 -110 318t-353 128q-490 0 -536 -360h-254zM1495 1040q-289 -4 -449 -14.5t-307 -54t-234 -139.5t-87 -263q0 -200 132.5 -305t330.5 -112q254 13 405 151q115 106 162 274t47 463zM881 2896h295l409 -590h-192l-369 430l-369 -430h-184z" />
    <glyph glyph-name="adieresis" unicode="&#xe4;" horiz-adv-x="2048" 
d="M242 1536q96 586 807 586q688 -16 688 -680v-1106q0 -52 10.5 -168.5t13.5 -167.5h-258l-8 303h-8q-58 -148 -244.5 -254.5t-386.5 -114.5q-169 0 -302.5 50t-223.5 136.5t-136 197.5t-51 235q9 16 9 33q6 221 121.5 364t295.5 217q139 65 311.5 77.5t614.5 21.5v184
q0 196 -110 318t-353 128q-490 0 -536 -360h-254zM1495 1040q-289 -4 -449 -14.5t-307 -54t-234 -139.5t-87 -263q0 -200 132.5 -305t330.5 -112q254 13 405 151q115 106 162 274t47 463zM1233 2896h303v-361h-303v361zM520 2896h295v-361h-295v361z" />
    <glyph glyph-name="atilde" unicode="&#xe3;" horiz-adv-x="2048" 
d="M242 1536q96 586 807 586q688 -16 688 -680v-1106q0 -52 10.5 -168.5t13.5 -167.5h-258l-8 303h-8q-58 -148 -244.5 -254.5t-386.5 -114.5q-169 0 -302.5 50t-223.5 136.5t-136 197.5t-51 235q9 16 9 33q6 221 121.5 364t295.5 217q139 65 311.5 77.5t614.5 21.5v184
q0 196 -110 318t-353 128q-490 0 -536 -360h-254zM1495 1040q-289 -4 -449 -14.5t-307 -54t-234 -139.5t-87 -263q0 -200 132.5 -305t330.5 -112q254 13 405 151q115 106 162 274t47 463zM455 2466q39 178 145 257t223 79q80 0 216 -43.5t194 -46.5q129 0 201 135h151
q-43 -172 -139.5 -254.5t-196.5 -89.5q-98 0 -223 41t-219 41q-158 0 -193 -119h-159z" />
    <glyph glyph-name="aring" unicode="&#xe5;" horiz-adv-x="2048" 
d="M242 1536q96 586 807 586q688 -16 688 -680v-1106q0 -52 10.5 -168.5t13.5 -167.5h-258l-8 303h-8q-58 -148 -244.5 -254.5t-386.5 -114.5q-169 0 -302.5 50t-223.5 136.5t-136 197.5t-51 235q9 16 9 33q6 221 121.5 364t295.5 217q139 65 311.5 77.5t614.5 21.5v184
q0 196 -110 318t-353 128q-490 0 -536 -360h-254zM1495 1040q-289 -4 -449 -14.5t-307 -54t-234 -139.5t-87 -263q0 -200 132.5 -305t330.5 -112q254 13 405 151q115 106 162 274t47 463zM664 2662q0 144 107.5 249.5t252.5 111.5q87 0 171 -46t136.5 -125.5t52.5 -172.5
q0 -166 -108.5 -273.5t-251.5 -107.5q-159 6 -259.5 117.5t-100.5 246.5zM1249 2662q0 87 -70.5 156.5t-154.5 69.5q-91 0 -158 -70t-67 -147q0 -84 63.5 -158t169.5 -80q71 0 144 67.5t73 161.5z" />
    <glyph glyph-name="ccedilla" unicode="&#xe7;" horiz-adv-x="2048" 
d="M942 -49q-208 30 -377.5 159.5t-270.5 371t-101 583.5q4 348 139.5 587t343.5 354.5t422 115.5q230 0 409 -90t280.5 -249.5t108.5 -357.5h-266q-15 226 -158 345.5t-391 125.5q-205 0 -344.5 -123t-208 -314t-73.5 -394q0 -211 63 -420.5t201.5 -349t353.5 -143.5
q9 4 13 6l4 2q134 5 251.5 59t194 161t86.5 259h274q-48 -348 -243.5 -523t-554.5 -182q-41 0 -58 9l-41 -152h58q352 0 352 -262q0 -148 -126.5 -215.5t-291.5 -67.5q-60 0 -112 8t-107.5 23.5t-108 35.5t-85.5 32l20 110q236 -94 393 -94q84 0 138.5 45t54.5 123
q0 85 -58.5 114.5t-158.5 37.5q-55 -17 -119 -17z" />
    <glyph glyph-name="eacute" unicode="&#xe9;" 
d="M1794 1200q-28 352 -202 514t-441 182q-138 0 -276 -58.5t-249.5 -215t-146.5 -422.5h1315zM1778 655h262q-100 -382 -332.5 -544t-556.5 -177q-257 0 -442.5 97.5t-294.5 254t-159.5 344t-53.5 378.5q8 24 8 57q6 260 82.5 461t205.5 333t293.5 197.5t352.5 65.5
q257 -6 437 -101t286.5 -257t152 -362t45.5 -435h-1593q0 -202 68 -386t226.5 -302.5t410.5 -118.5q186 0 316 84t198 198t88 213zM1303 2896h327l-520 -586h-172z" />
    <glyph glyph-name="egrave" unicode="&#xe8;" 
d="M1794 1200q-28 352 -202 514t-441 182q-138 0 -276 -58.5t-249.5 -215t-146.5 -422.5h1315zM1778 655h262q-100 -382 -332.5 -544t-556.5 -177q-257 0 -442.5 97.5t-294.5 254t-159.5 344t-53.5 378.5q8 24 8 57q6 260 82.5 461t205.5 333t293.5 197.5t352.5 65.5
q257 -6 437 -101t286.5 -257t152 -362t45.5 -435h-1593q0 -202 68 -386t226.5 -302.5t410.5 -118.5q186 0 316 84t198 198t88 213zM655 2896h328l377 -586h-184z" />
    <glyph glyph-name="ecircumflex" unicode="&#xea;" 
d="M1794 1200q-28 352 -202 514t-441 182q-138 0 -276 -58.5t-249.5 -215t-146.5 -422.5h1315zM1778 655h262q-100 -382 -332.5 -544t-556.5 -177q-257 0 -442.5 97.5t-294.5 254t-159.5 344t-53.5 378.5q8 24 8 57q6 260 82.5 461t205.5 333t293.5 197.5t352.5 65.5
q257 -6 437 -101t286.5 -257t152 -362t45.5 -435h-1593q0 -202 68 -386t226.5 -302.5t410.5 -118.5q186 0 316 84t198 198t88 213zM991 2896h295l410 -590h-193l-368 430l-365 -430h-184z" />
    <glyph glyph-name="edieresis" unicode="&#xeb;" 
d="M1794 1200q-28 352 -202 514t-441 182q-138 0 -276 -58.5t-249.5 -215t-146.5 -422.5h1315zM1778 655h262q-100 -382 -332.5 -544t-556.5 -177q-257 0 -442.5 97.5t-294.5 254t-159.5 344t-53.5 378.5q8 24 8 57q6 260 82.5 461t205.5 333t293.5 197.5t352.5 65.5
q257 -6 437 -101t286.5 -257t152 -362t45.5 -435h-1593q0 -202 68 -386t226.5 -302.5t410.5 -118.5q186 0 316 84t198 198t88 213zM1352 2888h303v-361h-303v361zM639 2888h299v-361h-299v361z" />
    <glyph glyph-name="iacute" unicode="&#xed;" horiz-adv-x="913" 
d="M328 2056h250v-2056h-250v2056zM614 2896h328l-516 -586h-176z" />
    <glyph glyph-name="igrave" unicode="&#xec;" horiz-adv-x="913" 
d="M328 2056h250v-2056h-250v2056zM-41 2896h328l377 -586h-185z" />
    <glyph glyph-name="icircumflex" unicode="&#xee;" horiz-adv-x="913" 
d="M328 2056h250v-2056h-250v2056zM311 2896h295l410 -590h-193l-368 430l-369 -430h-180z" />
    <glyph glyph-name="idieresis" unicode="&#xef;" horiz-adv-x="913" 
d="M328 2056h250v-2056h-250v2056zM664 2896h303v-361h-303v361zM-49 2896h299v-361h-299v361z" />
    <glyph glyph-name="ntilde" unicode="&#xf1;" 
d="M586 1753q84 160 252 264.5t403 104.5q214 0 374.5 -92.5t249.5 -277t89 -449.5v-1303h-250v1343q0 149 -57 271.5t-176.5 198.5t-294.5 83q-176 0 -313 -88t-211 -244.5t-74 -355.5v-1208h-250v1602q0 243 -25 454h258l17 -303h8zM578 2466q37 178 142 257t222 79
q82 0 217 -43.5t193 -46.5q130 0 200 135h152q-45 -173 -140.5 -255t-195.5 -89q-100 0 -224 41t-214 41q-158 0 -193 -119h-159z" />
    <glyph glyph-name="oacute" unicode="&#xf3;" 
d="M184 1057q8 221 73 413t184.5 337t291.5 228.5t385 86.5q225 0 406.5 -78.5t307 -224t192.5 -345t73 -442.5q0 -323 -120.5 -572.5t-338 -387.5t-495.5 -138h-8q-205 4 -379 85t-303.5 232t-199 354.5t-69.5 451.5zM446 1057q0 -252 85.5 -455.5t240 -320.5t354.5 -121
q223 0 383 124t241 327t81 438q0 349 -192 598t-521 249q-200 -12 -349.5 -122.5t-231.5 -297t-91 -419.5zM1294 2896h328l-516 -586h-176z" />
    <glyph glyph-name="ograve" unicode="&#xf2;" 
d="M184 1057q8 221 73 413t184.5 337t291.5 228.5t385 86.5q225 0 406.5 -78.5t307 -224t192.5 -345t73 -442.5q0 -323 -120.5 -572.5t-338 -387.5t-495.5 -138h-8q-205 4 -379 85t-303.5 232t-199 354.5t-69.5 451.5zM446 1057q0 -252 85.5 -455.5t240 -320.5t354.5 -121
q223 0 383 124t241 327t81 438q0 349 -192 598t-521 249q-200 -12 -349.5 -122.5t-231.5 -297t-91 -419.5zM647 2896h328l377 -586h-185z" />
    <glyph glyph-name="ocircumflex" unicode="&#xf4;" 
d="M184 1057q8 221 73 413t184.5 337t291.5 228.5t385 86.5q225 0 406.5 -78.5t307 -224t192.5 -345t73 -442.5q0 -323 -120.5 -572.5t-338 -387.5t-495.5 -138h-8q-205 4 -379 85t-303.5 232t-199 354.5t-69.5 451.5zM446 1057q0 -252 85.5 -455.5t240 -320.5t354.5 -121
q223 0 383 124t241 327t81 438q0 349 -192 598t-521 249q-200 -12 -349.5 -122.5t-231.5 -297t-91 -419.5zM983 2896h299l406 -590h-193l-369 430l-364 -430h-184z" />
    <glyph glyph-name="odieresis" unicode="&#xf6;" 
d="M184 1057q8 221 73 413t184.5 337t291.5 228.5t385 86.5q225 0 406.5 -78.5t307 -224t192.5 -345t73 -442.5q0 -323 -120.5 -572.5t-338 -387.5t-495.5 -138h-8q-205 4 -379 85t-303.5 232t-199 354.5t-69.5 451.5zM446 1057q0 -252 85.5 -455.5t240 -320.5t354.5 -121
q223 0 383 124t241 327t81 438q0 349 -192 598t-521 249q-200 -12 -349.5 -122.5t-231.5 -297t-91 -419.5zM1343 2896h304v-361h-304v361zM631 2896h299v-361h-299v361z" />
    <glyph glyph-name="otilde" unicode="&#xf5;" 
d="M184 1057q8 221 73 413t184.5 337t291.5 228.5t385 86.5q225 0 406.5 -78.5t307 -224t192.5 -345t73 -442.5q0 -323 -120.5 -572.5t-338 -387.5t-495.5 -138h-8q-205 4 -379 85t-303.5 232t-199 354.5t-69.5 451.5zM446 1057q0 -252 85.5 -455.5t240 -320.5t354.5 -121
q223 0 383 124t241 327t81 438q0 349 -192 598t-521 249q-200 -12 -349.5 -122.5t-231.5 -297t-91 -419.5zM578 2466q37 178 142 257t222 79q82 0 217 -43.5t193 -46.5q130 0 200 135h152q-45 -173 -140.5 -255t-195.5 -89q-100 0 -224 41t-214 41q-158 0 -193 -119h-159z
" />
    <glyph glyph-name="uacute" unicode="&#xfa;" 
d="M578 2056v-1319q0 -188 66 -315.5t184 -190.5t270 -63q172 0 310.5 83.5t217 242t78.5 370.5v1192h250v-1663q0 -115 20 -393h-254l-16 303l-8 8q-195 -351 -631 -377q-235 0 -401.5 102t-251 283.5t-84.5 417.5v1319h250zM1294 2896h328l-516 -586h-176z" />
    <glyph glyph-name="ugrave" unicode="&#xf9;" 
d="M578 2056v-1319q0 -188 66 -315.5t184 -190.5t270 -63q172 0 310.5 83.5t217 242t78.5 370.5v1192h250v-1663q0 -115 20 -393h-254l-16 303l-8 8q-195 -351 -631 -377q-235 0 -401.5 102t-251 283.5t-84.5 417.5v1319h250zM655 2896h328l377 -586h-184z" />
    <glyph glyph-name="ucircumflex" unicode="&#xfb;" 
d="M578 2056v-1319q0 -188 66 -315.5t184 -190.5t270 -63q172 0 310.5 83.5t217 242t78.5 370.5v1192h250v-1663q0 -115 20 -393h-254l-16 303l-8 8q-195 -351 -631 -377q-235 0 -401.5 102t-251 283.5t-84.5 417.5v1319h250zM991 2896h295l410 -590h-193l-368 430
l-365 -430h-184z" />
    <glyph glyph-name="udieresis" unicode="&#xfc;" 
d="M578 2056v-1319q0 -188 66 -315.5t184 -190.5t270 -63q172 0 310.5 83.5t217 242t78.5 370.5v1192h250v-1663q0 -115 20 -393h-254l-16 303l-8 8q-195 -351 -631 -377q-235 0 -401.5 102t-251 283.5t-84.5 417.5v1319h250zM1335 2888h303v-361h-303v361zM623 2888h299
v-361h-299v361z" />
    <glyph glyph-name="dagger" unicode="&#x2020;" 
d="M311 2224h705v737h250v-737h700v-225h-700v-1999h-250v1999h-705v225z" />
    <glyph glyph-name="cent" unicode="&#xa2;" 
d="M1729 1425q-6 163 -85 271t-194 143l-459 -1638q57 -24 193 -41q212 6 370 134t175 345h262q-39 -354 -248.5 -525t-525.5 -171q-162 0 -287 32l-148 -520h-184l172 594q-195 91 -339 358t-144 642q4 356 133 595.5t335.5 354.5t436.5 115q102 0 151 -9l144 521h184
l-160 -553q238 -87 352 -263t128 -385h-262zM1282 1888q-66 8 -98 8q-208 0 -348.5 -122.5t-209 -312.5t-73.5 -396q0 -529 287 -778z" />
    <glyph glyph-name="sterling" unicode="&#xa3;" 
d="M184 1769h303v185q0 567 267.5 754.5t597.5 187.5q258 0 441.5 -81.5t274.5 -216t91 -288.5h-287q0 148 -142 242t-378 94q-231 0 -410.5 -152.5t-179.5 -556.5v-168h663v-241h-663v-1278h1311v-250h-1823v250h237v1278h-303v241z" />
    <glyph glyph-name="section" unicode="&#xa7;" 
d="M504 262q251 -102 495 -102q297 0 421 118.5t132 274.5q0 146 -126.5 219t-398 166t-416.5 202t-156 310q0 323 442 516q-132 79 -200.5 128.5t-126.5 145t-58 238.5q4 183 105.5 303.5t262 177t337.5 56.5q160 0 446 -70v-225q-255 73 -406 73q-189 0 -336 -73
t-147 -242q0 -137 119 -213.5t380 -184.5t393 -212.5t132 -282.5v-8q-4 -97 -53.5 -179t-114.5 -137t-139.5 -99.5t-122.5 -71.5q455 -150 455 -537q-8 -217 -129.5 -356t-294.5 -201t-334 -62q-321 0 -561 99v229zM1135 1151q98 54 183.5 103t147.5 118.5t62 171.5
q0 96 -60 150t-213.5 115t-189.5 79q-180 -99 -262 -179t-82 -206q0 -110 99 -186t315 -166z" />
    <glyph glyph-name="bullet" unicode="&#x2022;" horiz-adv-x="1135" 
d="M737 1208v-352h-327v352h327z" />
    <glyph glyph-name="paragraph" unicode="&#xb6;" horiz-adv-x="2662" 
d="M1806 2712h-479v-3310h-270v1974q-214 0 -395 111.5t-286.5 306t-105.5 430.5q20 336 252 536.5t637 200.5h914v-3559h-267v3310z" />
    <glyph glyph-name="germandbls" unicode="&#xdf;" horiz-adv-x="2503" 
d="M598 0h-238v2130q0 230 83 432t265 329.5t459 131.5q214 0 385 -71t274.5 -211t110.5 -333q0 -152 -67.5 -236t-243 -266t-176.5 -268q0 -120 80.5 -181.5t325 -207t362 -282.5t117.5 -353q-9 -214 -103.5 -366t-249.5 -230.5t-335 -83.5q-213 0 -363.5 82.5t-229.5 229
t-87 332.5h266q0 -199 108 -304.5t306 -105.5q211 6 318.5 127t107.5 319q0 159 -110.5 259.5t-331 225t-334 235.5t-113.5 284q0 121 62 214t189 213.5t181.5 190t54.5 164.5q-7 161 -134 277t-361 116q-271 0 -424.5 -203.5t-153.5 -623.5v-1966z" />
    <glyph glyph-name="registered" unicode="&#xae;" horiz-adv-x="3281" 
d="M94 1528q10 318 142 593t352.5 477.5t494.5 313.5t564 111q408 0 762.5 -207.5t564 -565.5t209.5 -780q-6 -329 -129 -609.5t-334 -486.5t-479.5 -319t-561.5 -121q-431 0 -795 204.5t-579 563.5t-219 793q8 16 8 33zM344 1528q0 -387 165.5 -695.5t458.5 -480.5
t662 -176q17 8 33 8q267 8 497 101.5t406 264.5t273.5 407t97.5 522q-4 391 -177.5 686t-469.5 453.5t-652 158.5q-347 0 -640 -154.5t-467.5 -439.5t-186.5 -655zM1065 2376h782q305 0 446.5 -121t147.5 -375q0 -439 -545 -487l521 -787h-250l-496 787h-385v-787h-221v1770
zM1286 2167v-565h553q352 0 352 294q0 271 -385 271h-520z" />
    <glyph glyph-name="copyright" unicode="&#xa9;" horiz-adv-x="3281" 
d="M2200 1794q-32 157 -173.5 269t-347.5 112q-186 -7 -315 -100.5t-192.5 -241.5t-65.5 -313q0 -204 78 -367t219 -254.5t317 -91.5q186 0 320.5 117t159.5 284h225q-20 -194 -126 -330t-262.5 -204t-324.5 -68q-8 0 -24 -8q-200 5 -390 105.5t-312 305.5t-122 502
q4 314 135.5 508.5t316.5 275.5t363 81q312 0 507 -153.5t239 -428.5h-225zM94 1544q13 309 141.5 579.5t345 473.5t490.5 314.5t567 111.5q294 -3 569.5 -116t494.5 -318.5t345.5 -488.5t126.5 -613q0 -425 -201 -774.5t-546 -556t-748 -222.5q-337 0 -629.5 126
t-508.5 346.5t-334 499.5t-121 573q8 32 8 65zM344 1536q0 -295 95.5 -543.5t271.5 -431t416 -280t520 -97.5q284 0 522.5 97t410.5 273.5t264.5 413.5t92.5 511q0 391 -172.5 685.5t-467 451t-650.5 161.5q-356 0 -650 -161t-467.5 -446t-185.5 -634z" />
    <glyph glyph-name="trademark" unicode="&#x2122;" horiz-adv-x="3846" 
d="M119 2802v159h1315v-159h-545v-1569h-225v1569h-545zM1737 2961h405l500 -1290l487 1290h406v-1728h-221v1569l-611 -1569h-135l-606 1569v-1569h-225v1728z" />
    <glyph glyph-name="acute" unicode="&#xb4;" horiz-adv-x="1135" 
d="M729 2896h328l-520 -586h-177z" />
    <glyph glyph-name="dieresis" unicode="&#xa8;" horiz-adv-x="1135" 
d="M774 2896h307v-361h-307v361zM66 2896h294v-361h-294v361z" />
    <glyph glyph-name="AE" unicode="&#xc6;" horiz-adv-x="4096" 
d="M1745 2961h2048v-249h-1593l176 -1065h1343v-238h-1311l193 -1159h1233v-250h-1467l-135 799h-1441l-463 -799h-295zM2200 1049l-287 1663h-8l-967 -1663h1262z" />
    <glyph glyph-name="Oslash" unicode="&#xd8;" horiz-adv-x="3183" 
d="M225 49l344 381q-299 423 -299 1020q4 383 99 677t269 494t414.5 301t532.5 101q614 0 942 -381l336 381l115 -103l-352 -401q286 -396 286 -1069q-3 -377 -106 -662.5t-285.5 -475.5t-420.5 -284t-515 -94q-587 22 -913 377l-328 -377zM2343 2433q-98 123 -224 199
t-263.5 110.5t-270.5 34.5q-471 -6 -747.5 -353t-276.5 -970q0 -472 201 -799zM856 520q280 -336 729 -336q285 0 516.5 134t374 419t158.5 717q0 186 -42.5 418.5t-158.5 433.5z" />
    <glyph glyph-name="plusminus" unicode="&#xb1;" horiz-adv-x="2703" 
d="M1233 1352v704h237v-704h906v-246h-906v-696h-237v696h-905v246h905zM328 0v250h2048v-250h-2048z" />
    <glyph glyph-name="yen" unicode="&#xa5;" 
d="M0 2839h344l823 -1311l815 1311h291l-991 -1545h815v-245h-815v-250h815v-238h-815v-561h-266v561h-840v238h840v250h-840v245h823z" />
    <glyph glyph-name="mu" unicode="&#xb5;" 
d="M1704 872v1184h250v-1208q0 -569 12 -848h-246l-16 303l-8 8q-105 -186 -271.5 -281.5t-367.5 -95.5q-221 0 -479 107v-823h-250v2838h250v-1327q0 -264 138.5 -412.5t389.5 -148.5q194 0 329 96.5t202 256.5t67 351z" />
    <glyph glyph-name="ordfeminine" unicode="&#xaa;" horiz-adv-x="1233" 
d="M160 2671q52 352 504 352q208 -7 335 -93.5t127 -320.5v-696q0 -19 25 -160h-193l-16 160q-124 -184 -422 -201q-200 39 -311.5 117.5t-122.5 259.5q13 150 97 236t206.5 122.5t299.5 48t261 15.5q0 140 -22.5 211.5t-87 102t-193.5 30.5q-128 0 -207 -33.5t-96 -150.5
h-184zM958 2343q-19 0 -60 2t-62 2q-491 0 -533 -213q0 -115 74.5 -185.5t200.5 -76.5q72 16 94 16q286 45 286 455zM94 1544h1057v-168h-1057v168z" />
    <glyph glyph-name="ordmasculine" unicode="&#xba;" horiz-adv-x="1368" 
d="M66 2367q0 190 77.5 339.5t216.5 233t312 83.5q189 0 333 -80.5t221 -231t77 -352.5q0 -193 -80 -340t-224 -227t-327 -80q-176 5 -314 86.5t-215 229t-77 339.5zM262 2367q0 -164 100.5 -325.5t317.5 -161.5q191 0 308.5 145.5t117.5 350.5q-6 208 -121 343.5
t-305 135.5q-138 0 -233 -75t-140 -188.5t-45 -224.5zM66 1544h1237v-168h-1237v168z" />
    <glyph glyph-name="ae" unicode="&#xe6;" horiz-adv-x="3408" 
d="M242 1536q35 305 247.5 445.5t501.5 140.5q171 -9 317 -69t237.5 -157t109.5 -208h8q85 210 275.5 322t367.5 112q262 0 461 -122t311.5 -375t112.5 -626h-1438q0 -393 147 -616t427 -223q212 6 376 152.5t201 342.5h262q-56 -215 -168.5 -378.5t-277.5 -253t-369 -89.5
q-228 0 -429 133.5t-292 358.5q-53 -160 -184 -271t-297 -166t-318 -55q-213 0 -369.5 87t-237.5 232t-81 312q0 40 9 90q36 311 434 488q186 82 901 82q0 228 -25 361t-127 219.5t-319 90.5q-476 0 -512 -360h-262zM1487 999h-311q-235 0 -392.5 -28.5t-255 -120.5
t-110.5 -272q0 -201 134 -306t337 -112q211 13 368 110q234 171 234 631q0 17 -2 50t-2 48zM1753 1225h1167q0 337 -163 501t-439 170q-139 0 -269.5 -82t-213 -236t-82.5 -353z" />
    <glyph glyph-name="oslash" unicode="&#xf8;" 
d="M135 41l258 278q-95 119 -156 317.5t-61 403.5q9 316 130 562t341 383t512 137q189 -6 355.5 -77.5t279.5 -189.5l238 267l98 -107l-242 -270q93 -130 155 -324t62 -381q-15 -402 -164 -650t-371.5 -352t-471.5 -104q-195 14 -359 87.5t-260 187.5l-246 -275zM1618 1663
q-161 221 -467 233q-305 0 -498.5 -226t-206.5 -638q0 -120 41 -280.5t91 -231.5zM647 401q179 -220 459 -233q195 0 352 86.5t257 282t116 503.5q0 117 -31.5 262t-95.5 242z" />
    <glyph glyph-name="questiondown" unicode="&#xbf;" horiz-adv-x="2048" 
d="M1049 1872v352h327v-352h-327zM1327 1528v-430q0 -126 -88.5 -235.5t-274 -279t-286 -307.5t-109.5 -309q0 -273 185.5 -396.5t453.5 -123.5q230 0 410 66v-258q-259 -54 -434 -54q-246 0 -445 79t-317.5 243.5t-118.5 410.5q3 219 109 389t246.5 302.5t286 277.5
t145.5 248v377h237z" />
    <glyph glyph-name="exclamdown" unicode="&#xa1;" horiz-adv-x="1593" 
d="M688 1520h225l54 -2257h-336zM631 2224h327v-352h-327v352z" />
    <glyph glyph-name="logicalnot" unicode="&#xac;" horiz-adv-x="2703" 
d="M328 1552h2048v-1097h-246v848h-1802v249z" />
    <glyph glyph-name="florin" unicode="&#x192;" 
d="M606 1921h385l99 463q50 291 175.5 401.5t336.5 110.5q144 0 294 -25l-32 -237q-99 12 -193 12q-148 0 -221 -63t-98 -199l-86 -463h430l-33 -250h-438l-320 -1671q-47 -254 -94 -406.5t-163 -264t-320 -111.5q-78 0 -201 20l49 225q82 -16 119 -16q150 0 213 123
t106 356l336 1745h-381z" />
    <glyph glyph-name="guillemotleft" unicode="&#xab;" 
d="M418 1098l430 798h217l-385 -798l377 -803h-209zM1151 1098l442 798h205l-381 -798l377 -803h-201z" />
    <glyph glyph-name="guillemotright" unicode="&#xbb;" 
d="M864 1098l-385 798h209l430 -798l-430 -803h-209zM1602 1098l-377 798h200l439 -798l-439 -803h-208z" />
    <glyph glyph-name="ellipsis" unicode="&#x2026;" horiz-adv-x="4096" 
d="M1888 352h328v-352h-328v352zM3248 352h328v-352h-328v352zM520 352h328v-352h-328v352z" />
    <glyph glyph-name="Agrave" unicode="&#xc0;" horiz-adv-x="2736" 
d="M1208 2961h312l1183 -2961h-295l-311 799h-1474l-312 -799h-270zM1999 1049l-639 1663l-647 -1663h1286zM881 3801h327l377 -586h-184z" />
    <glyph glyph-name="Atilde" unicode="&#xc3;" horiz-adv-x="2736" 
d="M1208 2961h312l1183 -2961h-295l-311 799h-1474l-312 -799h-270zM1999 1049l-639 1663l-647 -1663h1286zM815 3367q39 180 145 258t224 78q47 0 98 -10.5t118 -31.5t110 -31.5t83 -12.5q133 0 201 135h152q-45 -173 -140.5 -255t-195.5 -89q-100 0 -225 41t-218 41
q-159 0 -192 -123h-160z" />
    <glyph glyph-name="Otilde" unicode="&#xd5;" horiz-adv-x="3183" 
d="M270 1511q5 439 156.5 779t446 532t712.5 201q451 0 749.5 -209t438 -554.5t139.5 -748.5v-24q0 -312 -75 -588.5t-235.5 -492.5t-417.5 -342t-607 -130q-337 0 -588.5 129.5t-409.5 351t-233.5 503.5t-75.5 593zM561 1511q5 -383 116 -682.5t341 -472t567 -172.5
q341 4 576 172t350 460.5t115 670.5q0 270 -64.5 503.5t-194.5 410.5t-329.5 276.5t-460.5 99.5q-325 -4 -555.5 -187t-345.5 -473t-115 -606zM1032 3359q39 179 145 257.5t224 78.5q47 0 98 -10.5t112.5 -30t108 -31.5t86.5 -14q133 0 201 135h152q-42 -174 -137.5 -255.5
t-198.5 -88.5q-100 0 -223 41t-216 41q-158 0 -192 -123h-160z" />
    <glyph glyph-name="OE" unicode="&#x152;" horiz-adv-x="4096" 
d="M250 1511q6 448 155.5 791t426.5 532t647 189q265 -6 447.5 -80t346.5 -240v258h1544v-249h-1273v-1057h1216v-246h-1216v-1159h1335v-250h-1606v279h-16q-101 -137 -300.5 -241t-506.5 -104q-383 12 -655 221t-408.5 564.5t-136.5 791.5zM537 1511q0 -269 59 -509
t179 -425t300.5 -289t411.5 -104q211 0 387.5 76.5t283.5 241.5t107 411v1119q0 344 -187.5 541.5t-566.5 203.5q-253 0 -438.5 -112t-302 -296t-173.5 -407.5t-60 -450.5z" />
    <glyph glyph-name="oe" unicode="&#x153;" horiz-adv-x="3641" 
d="M3174 1200q0 659 -589 696q-107 0 -235 -56t-230 -212t-113 -428h1167zM3158 655h258q-40 -167 -117 -303t-184 -228.5t-243.5 -141t-295.5 -48.5q-278 0 -465 143.5t-239 368.5h-8q-71 -216 -263.5 -364t-474.5 -148q-264 0 -478 129.5t-339 380t-125 588.5
q0 289 112.5 538t320.5 398.5t481 153.5q539 0 774 -512q75 220 252 366t452 146q406 -6 635.5 -294.5t229.5 -860.5h-1434q0 -327 127 -567t442 -240q180 11 306.5 95t192 194.5t83.5 205.5zM446 1032q0 -185 65 -387t218.5 -343.5t396.5 -141.5q272 6 445.5 224t173.5 648
q0 418 -166 641t-481 223q-186 0 -335.5 -120.5t-233 -319t-83.5 -424.5z" />
    <glyph glyph-name="emdash" unicode="&#x2013;" horiz-adv-x="2048" 
d="M0 1217h2048v-250h-2048v250z" />
    <glyph glyph-name="endash" unicode="&#x2014;" horiz-adv-x="4096" 
d="M0 1217h4088h16v-242h-4088h-16v242z" />
    <glyph glyph-name="quotedblleft" unicode="&#x201c;" 
d="M487 2122l295 839h217l-184 -839h-328zM1241 2122l295 839h217l-176 -839h-336z" />
    <glyph glyph-name="quotedblright" unicode="&#x201d;" 
d="M705 2961h335l-295 -839h-217zM1282 2122l180 839h332l-299 -839h-213z" />
    <glyph glyph-name="quoteleft" unicode="&#x2018;" horiz-adv-x="1135" 
d="M594 2961h213l-176 -839h-336z" />
    <glyph glyph-name="quoteright" unicode="&#x2019;" horiz-adv-x="1135" 
d="M504 2961h336l-295 -839h-217z" />
    <glyph glyph-name="ydieresis" unicode="&#xff;" horiz-adv-x="2048" 
d="M33 2056h295l696 -1720l688 1720h270l-733 -1839l-401 -999h-270l311 782zM1233 2896h303v-361h-303v361zM520 2896h295v-361h-295v361z" />
    <glyph glyph-name="currency" unicode="&#xa4;" 
d="M344 2241l184 -177q247 201 623 201q163 0 326.5 -55.5t275.5 -145.5l184 177l213 -218l-184 -176q201 -266 201 -614q0 -112 -24.5 -225.5t-69 -210.5t-107.5 -174l184 -177l-213 -213l-184 177q-257 -196 -627 -209q-350 13 -598 209l-184 -177l-217 213l176 177
q-187 270 -201 618q14 356 201 606l-176 176zM1880 1249q0 180 -92.5 346.5t-258 270.5t-370.5 108q-225 0 -399 -104t-266.5 -270.5t-92.5 -342.5q0 -208 97.5 -383.5t265 -279t362.5 -107.5q17 9 33 9q209 4 374 111t256 280.5t91 361.5z" />
    <glyph glyph-name="guilsinglleft" unicode="&#x2039;" horiz-adv-x="1135" 
d="M242 1098l430 798h209l-385 -798l385 -803h-209z" />
    <glyph glyph-name="guilsinglright" unicode="&#x203a;" horiz-adv-x="1135" 
d="M639 1098l-377 798h201l442 -798l-442 -803h-205z" />
    <glyph glyph-name="fi" unicode="&#xf001;" 
d="M1638 2961h291v-307h-291v307zM1663 2056h250v-2056h-250v2056zM504 2056v471q0 258 132 368.5t322 110.5q172 0 275 -45v-192q-20 0 -89 8t-112 8q-278 0 -278 -291v-438h463v-225h-463v-1831h-250v1831h-418v225h418z" />
    <glyph glyph-name="fl" unicode="&#xf002;" 
d="M1679 2961h250v-2961h-250v2961zM512 2056v471q0 348 250 443q97 28 213 28q142 0 266 -37v-192q-114 16 -176 16q-303 0 -303 -266v-463h463v-225h-463v-1831h-250v1831h-418v225h418z" />
    <glyph glyph-name="daggerdbl" unicode="&#x2021;" 
d="M311 2224h705v737h250v-737h700v-225h-700v-1049h700v-221h-700v-729h-250v729h-705v221h705v1049h-705v225z" />
    <glyph glyph-name="periodcentered" unicode="&#xb7;" horiz-adv-x="2048" 
d="M1769 1495q0 -197 -99 -367.5t-270.5 -272t-375.5 -101.5q-197 0 -367 98t-270 265.5t-100 361.5q0 201 96.5 377t262.5 280.5t362 104.5q201 0 376.5 -100.5t280 -273t104.5 -372.5z" />
    <glyph glyph-name="quotedblbase" unicode="&#x201e;" 
d="M696 328h336l-295 -832h-217zM1274 -504l176 832h336l-299 -832h-213z" />
    <glyph glyph-name="perthousand" unicode="&#x2030;" horiz-adv-x="4096" 
d="M1081 2257q-6 201 -101.5 328t-258.5 127q-170 0 -269.5 -132.5t-99.5 -330.5q0 -202 85.5 -349t283.5 -147q185 5 272.5 155t87.5 349zM119 2249q39 647 618 647q138 0 267.5 -66.5t214 -210t84.5 -362.5q0 -341 -158 -511.5t-416 -176.5q-261 0 -435.5 171t-174.5 509z
M2089 2896h217l-1708 -2962h-221zM2318 614q-6 211 -101 339t-263 128q-110 0 -192 -62t-125.5 -169t-43.5 -236q0 -203 85 -349t284 -146q184 0 270 148.5t86 346.5zM1360 614q39 652 606 652q228 0 400 -160t178 -483q0 -348 -158.5 -519.5t-419.5 -177.5
q-165 0 -303.5 74.5t-220.5 230t-82 383.5zM3744 614q-6 211 -102 339t-267 128q-161 0 -260.5 -134t-99.5 -333q0 -202 86 -348.5t282 -146.5q188 0 274.5 148.5t86.5 346.5zM2785 614q39 652 615 652q140 0 270 -66.5t214.5 -211.5t84.5 -365q0 -347 -159.5 -519
t-418.5 -178q-165 0 -303.5 74.5t-220.5 230t-82 383.5z" />
    <glyph glyph-name="Acircumflex" unicode="&#xc2;" horiz-adv-x="2736" 
d="M1208 2961h312l1183 -2961h-295l-311 799h-1474l-312 -799h-270zM1999 1049l-639 1663l-647 -1663h1286zM1225 3801h295l409 -594h-192l-369 434l-369 -434h-184z" />
    <glyph glyph-name="Ecircumflex" unicode="&#xca;" horiz-adv-x="2503" 
d="M418 2961h1757v-249h-1487v-1065h1434v-238h-1434v-1159h1553v-250h-1823v2961zM1106 3801h295l405 -594h-188l-369 434l-368 -434h-185z" />
    <glyph glyph-name="Aacute" unicode="&#xc1;" horiz-adv-x="2736" 
d="M1208 2961h312l1183 -2961h-295l-311 799h-1474l-312 -799h-270zM1999 1049l-639 1663l-647 -1663h1286zM1536 3801h328l-521 -586h-176z" />
    <glyph glyph-name="Edieresis" unicode="&#xcb;" horiz-adv-x="2503" 
d="M418 2961h1757v-249h-1487v-1065h1434v-238h-1434v-1159h1553v-250h-1823v2961zM1462 3809h307v-360h-307v360zM754 3809h295v-360h-295v360z" />
    <glyph glyph-name="Egrave" unicode="&#xc8;" horiz-adv-x="2503" 
d="M418 2961h1757v-249h-1487v-1065h1434v-238h-1434v-1159h1553v-250h-1823v2961zM770 3809h328l372 -585h-184z" />
    <glyph glyph-name="Iacute" unicode="&#xcd;" horiz-adv-x="1135" 
d="M438 2978h267v-2978h-267v2978zM729 3801h328l-520 -586h-177z" />
    <glyph glyph-name="Icircumflex" unicode="&#xce;" horiz-adv-x="1135" 
d="M438 2978h267v-2978h-267v2978zM426 3801h295l405 -594h-188l-369 434l-368 -434h-185z" />
    <glyph glyph-name="Idieresis" unicode="&#xcf;" horiz-adv-x="1135" 
d="M438 2978h267v-2978h-267v2978zM774 3817h307v-360h-307v360zM66 3817h294v-360h-294v360z" />
    <glyph glyph-name="Igrave" unicode="&#xcc;" horiz-adv-x="1135" 
d="M438 2978h267v-2978h-267v2978zM82 3801h328l372 -586h-184z" />
    <glyph glyph-name="Oacute" unicode="&#xd3;" horiz-adv-x="3183" 
d="M270 1511q5 439 156.5 779t446 532t712.5 201q451 0 749.5 -209t438 -554.5t139.5 -748.5v-24q0 -312 -75 -588.5t-235.5 -492.5t-417.5 -342t-607 -130q-337 0 -588.5 129.5t-409.5 351t-233.5 503.5t-75.5 593zM561 1511q5 -383 116 -682.5t341 -472t567 -172.5
q341 4 576 172t350 460.5t115 670.5q0 270 -64.5 503.5t-194.5 410.5t-329.5 276.5t-460.5 99.5q-325 -4 -555.5 -187t-345.5 -473t-115 -606zM1753 3801h328l-520 -586h-177z" />
    <glyph glyph-name="Ocircumflex" unicode="&#xd4;" horiz-adv-x="3183" 
d="M270 1511q5 439 156.5 779t446 532t712.5 201q451 0 749.5 -209t438 -554.5t139.5 -748.5v-24q0 -312 -75 -588.5t-235.5 -492.5t-417.5 -342t-607 -130q-337 0 -588.5 129.5t-409.5 351t-233.5 503.5t-75.5 593zM561 1511q5 -383 116 -682.5t341 -472t567 -172.5
q341 4 576 172t350 460.5t115 670.5q0 270 -64.5 503.5t-194.5 410.5t-329.5 276.5t-460.5 99.5q-325 -4 -555.5 -187t-345.5 -473t-115 -606zM1450 3801h295l405 -594h-188l-369 434l-368 -434h-185z" />
    <glyph glyph-name="Ograve" unicode="&#xd2;" horiz-adv-x="3183" 
d="M270 1511q5 439 156.5 779t446 532t712.5 201q451 0 749.5 -209t438 -554.5t139.5 -748.5v-24q0 -312 -75 -588.5t-235.5 -492.5t-417.5 -342t-607 -130q-337 0 -588.5 129.5t-409.5 351t-233.5 503.5t-75.5 593zM561 1511q5 -383 116 -682.5t341 -472t567 -172.5
q341 4 576 172t350 460.5t115 670.5q0 270 -64.5 503.5t-194.5 410.5t-329.5 276.5t-460.5 99.5q-325 -4 -555.5 -187t-345.5 -473t-115 -606zM1106 3801h328l372 -586h-184z" />
    <glyph glyph-name="Uacute" unicode="&#xda;" horiz-adv-x="2961" 
d="M401 2961h263v-1888q0 -283 107.5 -484.5t295.5 -303t428 -101.5q242 4 423.5 114.5t280.5 313t99 469.5v1880h262v-1929q0 -308 -123.5 -555.5t-360.5 -390.5t-565 -152q-547 0 -828.5 309.5t-281.5 805.5v1912zM1638 3801h328l-516 -586h-176z" />
    <glyph glyph-name="Ucircumflex" unicode="&#xdb;" horiz-adv-x="2961" 
d="M401 2961h263v-1888q0 -283 107.5 -484.5t295.5 -303t428 -101.5q242 4 423.5 114.5t280.5 313t99 469.5v1880h262v-1929q0 -308 -123.5 -555.5t-360.5 -390.5t-565 -152q-547 0 -828.5 309.5t-281.5 805.5v1912zM1327 3809h295l410 -594h-193l-369 435l-364 -435h-184z
" />
    <glyph glyph-name="Ugrave" unicode="&#xd9;" horiz-adv-x="2961" 
d="M401 2961h263v-1888q0 -283 107.5 -484.5t295.5 -303t428 -101.5q242 4 423.5 114.5t280.5 313t99 469.5v1880h262v-1929q0 -308 -123.5 -555.5t-360.5 -390.5t-565 -152q-547 0 -828.5 309.5t-281.5 805.5v1912zM983 3801h328l377 -586h-185z" />
    <glyph glyph-name="dotlessi" unicode="&#x131;" horiz-adv-x="913" 
d="M328 2056h250v-2056h-250v2056z" />
    <glyph glyph-name="circumflex" unicode="&#x2c6;" horiz-adv-x="1135" 
d="M426 2896h295l405 -590h-188l-369 430l-368 -430h-185z" />
    <glyph glyph-name="tilde" unicode="&#x2dc;" horiz-adv-x="1135" 
d="M8 2466q39 178 145.5 257t223.5 79q78 0 212 -43t193 -47q129 0 201 135h152q-42 -174 -137.5 -255.5t-198.5 -88.5q-100 0 -223 41t-216 41q-157 0 -192 -119h-160z" />
    <glyph glyph-name="breve" unicode="&#x2d8;" horiz-adv-x="1135" 
d="M74 2896h78q49 -209 409 -209q148 0 274.5 48.5t163.5 160.5h74q-17 -225 -147 -313.5t-365 -88.5q-215 0 -351 95t-136 307z" />
    <glyph glyph-name="ring" unicode="&#x2da;" horiz-adv-x="1135" 
d="M209 2662q0 144 107.5 249.5t252.5 111.5q87 0 171 -46.5t137 -125.5t53 -172q0 -166 -108.5 -273.5t-252.5 -107.5q-159 6 -259.5 117.5t-100.5 246.5zM791 2662q0 85 -69.5 155.5t-152.5 70.5q-93 0 -159 -70t-66 -147q0 -84 64.5 -158t169.5 -80q70 0 141.5 67
t71.5 162z" />
    <glyph glyph-name="cedilla" unicode="&#xb8;" horiz-adv-x="1135" 
d="M606 25l-61 -234h53q352 0 352 -270q0 -142 -127.5 -208.5t-285.5 -66.5q-83 0 -153 14.5t-135.5 37t-137.5 47.5l32 110q228 -94 394 -94q145 0 192 111v57q0 134 -209 152q-77 -17 -119 -17l111 361h94z" />
  </font>
</defs>
</svg>
