<svg id="Layer_1"  xmlns="http://www.w3.org/2000/svg" viewBox="0 0 787.82 530.96">
    <defs>
        <style>.cls-1{fill:#f4efeb;}.cls-2{fill:#faf6f5;}</style>
    </defs>
    <title>fon_555</title>
    <g id="_8F7f90.tif" data-name="8F7f90.tif">
        <path class="cls-1"
              d="M788.26,9.51v519l-1,1H5.43c1.39-1.29,2.56-3.21,4.2-3.76,5.64-1.89,11.49-3.15,17.17-4.92a1025.79,1025.79,0,0,0,132.55-51.45c24.43-11.53,48.66-23.67,72.07-37.12,28.29-16.24,56-33.63,83.27-51.49C351,357,384.46,329.31,416.83,300.4c14.08-12.59,28-25.37,42-38,15.53-13.94,31-27.89,46.71-41.68q26.84-23.61,53.95-46.93c15.18-13.05,30.26-26.24,45.92-38.7,22.9-18.23,46.15-36,69.49-53.7C709.89,55,747,31.77,785.27,10.5Z"
              transform="translate(-0.44 1.46)"/>
        <path class="cls-2"
              d="M.44,529.5a372.09,372.09,0,0,1,29.87-64.45C42,445,53.79,425,66.93,405.92s27.54-37.22,42.15-55.16c11.07-13.59,23-26.48,35.14-39.19,12.92-13.57,25.86-27.22,39.83-39.66,19.14-17,38.81-33.52,59.07-49.2,20-15.48,40.54-30.43,61.76-44.2,22.78-14.78,46.33-28.44,70.1-41.59,21.34-11.81,43-23.11,65.29-33.08,28.86-12.94,58.18-25,87.74-36.25,52.52-20.07,106.44-35.77,161.21-48.38,28.63-6.59,57.57-11.83,86.34-17.81,2-.41,3.81-1.88,5.71-2.86h4v12C747,31.77,709.89,55,674.94,81.4c-23.34,17.66-46.59,35.47-69.49,53.7-15.66,12.46-30.74,25.65-45.92,38.7q-27.12,23.31-53.95,46.93c-15.67,13.79-31.18,27.74-46.71,41.68-14.05,12.62-28,25.4-42,38C384.46,329.31,351,357,314.69,380.76c-27.31,17.86-55,35.25-83.27,51.49-23.41,13.45-47.64,25.59-72.07,37.12A1025.79,1025.79,0,0,1,26.8,520.82c-5.68,1.77-11.53,3-17.17,4.92-1.64.55-2.81,2.47-4.2,3.76Z"
              transform="translate(-0.44 1.46)"/>
    </g>
</svg>
